<svg width="512" height="512" viewBox="0 0 512 512" xmlns="http://www.w3.org/2000/svg">
    <path fill-rule="evenodd" clip-rule="evenodd" d="M256 0C275.576 0 291.446 15.8698 291.446 35.4462V220.554H476.554C496.13 220.554 512 236.424 512 256C512 275.576 496.13 291.446 476.554 291.446H291.446V476.554C291.446 496.13 275.576 512 256 512C236.424 512 220.554 496.13 220.554 476.554V291.446H35.4462C15.8698 291.446 0 275.576 0 256C0 236.424 15.8698 220.554 35.4462 220.554H220.554V35.4462C220.554 15.8698 236.424 0 256 0Z"/>
</svg>
