<svg width="939" height="512" viewBox="0 0 939 512" xmlns="http://www.w3.org/2000/svg">
    <path d="M256 85.3333C210.736 85.3333 167.327 103.314 135.32 135.32C103.314 167.327 85.3333 210.736 85.3333 256C85.3333 301.264 103.314 344.673 135.32 376.68C167.327 408.686 210.736 426.667 256 426.667H341.333C352.649 426.667 363.502 431.162 371.503 439.163C379.505 447.165 384 458.017 384 469.333C384 480.649 379.505 491.502 371.503 499.503C363.502 507.505 352.649 512 341.333 512H256C188.105 512 122.99 485.029 74.9807 437.019C26.9713 389.01 0 323.895 0 256C0 188.105 26.9713 122.99 74.9807 74.9807C122.99 26.9714 188.105 0 256 0H341.333C352.649 0 363.502 4.49523 371.503 12.4968C379.505 20.4983 384 31.3508 384 42.6667C384 53.9826 379.505 64.835 371.503 72.8365C363.502 80.8381 352.649 85.3333 341.333 85.3333H256ZM554.667 42.6667C554.667 31.3508 559.162 20.4983 567.163 12.4968C575.165 4.49523 586.017 0 597.333 0H682.667C750.562 0 815.677 26.9714 863.686 74.9807C911.695 122.99 938.667 188.105 938.667 256C938.667 323.895 911.695 389.01 863.686 437.019C815.677 485.029 750.562 512 682.667 512H597.333C586.017 512 575.165 507.505 567.163 499.503C559.162 491.502 554.667 480.649 554.667 469.333C554.667 458.017 559.162 447.165 567.163 439.163C575.165 431.162 586.017 426.667 597.333 426.667H682.667C727.93 426.667 771.34 408.686 803.346 376.68C835.352 344.673 853.333 301.264 853.333 256C853.333 210.736 835.352 167.327 803.346 135.32C771.34 103.314 727.93 85.3333 682.667 85.3333H597.333C586.017 85.3333 575.165 80.8381 567.163 72.8365C559.162 64.835 554.667 53.9826 554.667 42.6667ZM256 256C256 244.684 260.495 233.832 268.497 225.83C276.498 217.829 287.351 213.333 298.667 213.333H640C651.316 213.333 662.168 217.829 670.17 225.83C678.171 233.832 682.667 244.684 682.667 256C682.667 267.316 678.171 278.168 670.17 286.17C662.168 294.171 651.316 298.667 640 298.667H298.667C287.351 298.667 276.498 294.171 268.497 286.17C260.495 278.168 256 267.316 256 256Z"/>
</svg>
