<svg width="512" height="513" viewBox="0 0 512 513" xmlns="http://www.w3.org/2000/svg">
    <path d="M264.816 381.973L365.696 445.877C378.592 454.037 394.592 441.893 390.768 426.837L361.632 312.197C360.809 309.004 360.904 305.643 361.906 302.502C362.908 299.36 364.776 296.565 367.296 294.437L457.76 219.157C469.632 209.269 463.52 189.541 448.24 188.549L330.112 180.869C326.932 180.644 323.881 179.519 321.315 177.627C318.748 175.735 316.772 173.153 315.616 170.181L271.552 59.2374C270.352 56.0845 268.223 53.3707 265.445 51.4558C262.668 49.541 259.374 48.5156 256 48.5156C252.627 48.5156 249.333 49.541 246.555 51.4558C243.778 53.3707 241.648 56.0845 240.448 59.2374L196.384 170.181C195.231 173.156 193.256 175.742 190.689 177.637C188.123 179.532 185.071 180.658 181.888 180.885L63.7603 188.565C48.4963 189.541 42.3523 209.269 54.2403 219.157L144.704 294.453C147.221 296.579 149.088 299.372 150.09 302.51C151.091 305.649 151.188 309.006 150.368 312.197L123.36 418.517C118.768 436.581 137.984 451.157 153.44 441.349L247.2 381.973C249.835 380.298 252.894 379.408 256.016 379.408C259.139 379.408 262.197 380.298 264.832 381.973H264.816Z"/>
</svg>
