<svg width="512" height="512" viewBox="0 0 512 512" xmlns="http://www.w3.org/2000/svg">
    <path fill-rule="evenodd" clip-rule="evenodd" d="M8.03364 8.03364C18.7452 -2.67788 36.112 -2.67788 46.8235 8.03364L256 217.21L465.177 8.03364C475.888 -2.67788 493.255 -2.67788 503.966 8.03364C514.678 18.7452 514.678 36.112 503.966 46.8235L294.79 256L503.966 465.177C514.678 475.888 514.678 493.255 503.966 503.966C493.255 514.678 475.888 514.678 465.177 503.966L256 294.79L46.8235 503.966C36.112 514.678 18.7452 514.678 8.03364 503.966C-2.67788 493.255 -2.67788 475.888 8.03364 465.177L217.21 256L8.03364 46.8235C-2.67788 36.112 -2.67788 18.7452 8.03364 8.03364Z"/>
</svg>
