<svg width="585" height="513" viewBox="0 0 585 513" fill="none" xmlns="http://www.w3.org/2000/svg">
<path fill-rule="evenodd" clip-rule="evenodd" d="M255.871 10.259C267.044 3.96866 279.649 0.664062 292.471 0.664062C305.293 0.664062 317.898 3.96865 329.071 10.259C340.244 16.5493 349.606 25.613 356.256 36.5756L356.323 36.6856L574.404 400.756C580.918 412.037 584.362 424.828 584.399 437.854C584.435 450.881 581.06 463.689 574.609 475.006C568.159 486.324 558.857 495.754 547.63 502.361C536.403 508.967 523.642 512.518 510.616 512.661L510.362 512.664L74.3256 512.663C61.2998 512.519 48.5388 508.967 37.3118 502.361C26.0848 495.754 16.7832 486.324 10.3325 475.006C3.8818 463.689 0.506787 450.881 0.543261 437.854C0.579736 424.828 4.02643 412.038 10.5404 400.757L10.7259 400.436L228.686 36.5755C235.335 25.6129 244.698 16.5493 255.871 10.259ZM292.471 46.9691C287.608 46.9691 282.826 48.2226 278.588 50.6086C274.366 52.9856 270.826 56.4068 268.305 60.544C268.296 60.5596 268.286 60.5752 268.277 60.5907L50.5612 424.05C48.1415 428.295 46.8618 433.096 46.8481 437.984C46.8343 442.925 48.1145 447.783 50.5613 452.076C53.0081 456.369 56.5363 459.946 60.7948 462.452C65.0226 464.939 69.8238 466.285 74.7271 466.358H510.215C515.118 466.285 519.919 464.939 524.147 462.452C528.406 459.946 531.934 456.369 534.381 452.076C536.828 447.783 538.108 442.925 538.094 437.984C538.08 433.096 536.801 428.296 534.381 424.05L316.665 60.5907C316.656 60.5752 316.647 60.5596 316.637 60.5441C314.116 56.4068 310.576 52.9856 306.354 50.6086C302.116 48.2226 297.334 46.9691 292.471 46.9691ZM292.471 157.657C305.258 157.657 315.624 168.023 315.624 180.81V283.71C315.624 296.496 305.258 306.862 292.471 306.862C279.684 306.862 269.319 296.496 269.319 283.71V180.81C269.319 168.023 279.684 157.657 292.471 157.657ZM269.319 386.61C269.319 373.823 279.684 363.457 292.471 363.457H292.728C305.515 363.457 315.881 373.823 315.881 386.61C315.881 399.397 305.515 409.762 292.728 409.762H292.471C279.684 409.762 269.319 399.397 269.319 386.61Z" fill="#EA4B48"/>
</svg>
