<svg width="512" height="83" viewBox="0 0 512 83" fill="none" xmlns="http://www.w3.org/2000/svg">
<path d="M88.4155 8.5946C77.4673 8.5946 62.0002 9.51065 54.096 17.4106C50.6738 20.8328 48.965 26.4115 49.4086 32.7258C49.4662 33.5599 50.0208 34.2704 50.8177 34.5335C51.6105 34.7923 52.4815 34.5499 53.0237 33.9132C57.4195 28.741 62.8833 24.596 69.2756 21.5928C69.8179 21.334 70.4588 21.3134 71.0421 21.5189C71.5556 21.7038 71.9581 22.0529 72.1676 22.5008C72.603 23.4211 72.4634 24.6329 71.0174 25.3148C70.9352 25.3558 70.8612 25.4094 70.7792 25.4463C70.7505 25.4587 70.7176 25.4546 70.6929 25.4669C54.9423 32.8699 47.1985 45.7859 43.6818 59.0674C41.1183 42.4377 35.7039 32.6478 30.5892 26.6378C26.8879 21.8395 23.2479 19.2964 21.1447 17.8587C20.7543 17.5916 19.5754 16.7865 19.0865 16.2976C18.2854 15.4965 18.2854 14.1941 19.0865 13.393C19.8876 12.596 21.194 12.596 22.0854 13.4834C22.3032 13.6765 22.6523 13.923 23.096 14.2188L23.4617 14.4653C26.4359 16.5028 31.9738 20.2864 36.887 28.4329C37.3267 29.16 38.177 29.5504 39.0028 29.3942C39.8408 29.2463 40.4981 28.6014 40.6625 27.7674C41.7348 22.2913 41.2541 14.1652 36.3696 9.28072C28.4656 1.3848 12.9984 0.46875 2.05433 0.46875C0.920288 0.468557 0 1.38885 0 2.52269C0 13.4708 0.916052 28.938 8.81601 36.8422C12.1107 40.1369 17.1926 41.6158 22.2414 41.6158C26.3618 41.6158 30.4001 40.5846 33.4936 38.7976C37.7126 47.5396 41.0814 60.5995 41.0814 80.5774C41.0814 81.7112 42.0017 82.6315 43.1355 82.6315C44.2693 82.6315 45.1896 81.7112 45.1896 80.5774C45.1896 69.4321 47.0999 56.0558 54.2028 45.046C57.0498 47.8273 61.9509 49.5897 67.3817 49.754C67.6528 49.7623 67.9199 49.7663 68.1868 49.7663C73.7041 49.7663 78.5804 48.0368 81.6491 44.9638C89.5532 37.0598 90.4652 21.5926 90.4652 10.6443C90.4696 9.51065 89.5533 8.5946 88.4155 8.5946Z" fill="#00B307"/>
<path d="M130.18 18.0969V36.5518H151.891V44.9651H130.18V64.2342H154.605V72.6475H119.867V9.68359H154.605V18.0969H130.18Z" fill="#002603"/>
<path d="M161.156 47.679C161.156 42.5527 162.182 38.0596 164.232 34.1997C166.343 30.2795 169.238 27.264 172.917 25.1532C176.596 23.0423 180.817 21.9869 185.582 21.9869C191.613 21.9869 196.589 23.4343 200.509 26.3292C204.489 29.1638 207.173 33.2347 208.56 38.542H197.433C196.528 36.0693 195.081 34.1394 193.091 32.7523C191.1 31.3651 188.597 30.6716 185.582 30.6716C181.36 30.6716 177.983 32.1793 175.45 35.1948C172.977 38.15 171.741 42.3114 171.741 47.679C171.741 53.0467 172.977 57.2382 175.45 60.2537C177.983 63.2692 181.36 64.777 185.582 64.777C191.553 64.777 195.503 62.1535 197.433 56.9065H208.56C207.113 61.9726 204.399 66.0134 200.418 69.0289C196.438 71.9841 191.492 73.4617 185.582 73.4617C180.817 73.4617 176.596 72.4062 172.917 70.2954C169.238 68.1242 166.343 65.1087 164.232 61.2488C162.182 57.3287 161.156 52.8054 161.156 47.679Z" fill="#002603"/>
<path d="M237.745 73.4617C233.041 73.4617 228.789 72.4062 224.989 70.2954C221.19 68.1242 218.205 65.1087 216.033 61.2488C213.862 57.3287 212.777 52.8054 212.777 47.679C212.777 42.613 213.892 38.1199 216.124 34.1997C218.355 30.2795 221.401 27.264 225.261 25.1532C229.121 23.0423 233.433 21.9869 238.197 21.9869C242.962 21.9869 247.274 23.0423 251.134 25.1532C254.994 27.264 258.039 30.2795 260.271 34.1997C262.502 38.1199 263.618 42.613 263.618 47.679C263.618 52.7451 262.472 57.2382 260.18 61.1584C257.889 65.0785 254.753 68.1242 250.772 70.2954C246.852 72.4062 242.51 73.4617 237.745 73.4617ZM237.745 64.5056C240.399 64.5056 242.871 63.8723 245.163 62.6058C247.515 61.3393 249.415 59.4395 250.863 56.9065C252.31 54.3735 253.034 51.2977 253.034 47.679C253.034 44.0604 252.34 41.0148 250.953 38.542C249.566 36.009 247.726 34.1092 245.435 32.8427C243.143 31.5762 240.67 30.9429 238.016 30.9429C235.363 30.9429 232.89 31.5762 230.598 32.8427C228.367 34.1092 226.588 36.009 225.261 38.542C223.934 41.0148 223.271 44.0604 223.271 47.679C223.271 53.0467 224.628 57.2081 227.342 60.1633C230.116 63.0582 233.584 64.5056 237.745 64.5056Z" fill="#002603"/>
<path d="M281.412 30.2192C283.161 27.8068 285.544 25.8467 288.559 24.339C291.635 22.7709 295.042 21.9869 298.782 21.9869C303.184 21.9869 307.165 23.0423 310.723 25.1532C314.281 27.264 317.086 30.2795 319.136 34.1997C321.187 38.0596 322.212 42.4924 322.212 47.4981C322.212 52.5039 321.187 56.997 319.136 60.9775C317.086 64.8976 314.251 67.9734 310.633 70.2049C307.074 72.3761 303.124 73.4617 298.782 73.4617C294.922 73.4617 291.484 72.7078 288.469 71.2C285.513 69.6923 283.161 67.7624 281.412 65.4103V72.6475H271.099V5.70312H281.412V30.2192ZM311.718 47.4981C311.718 44.0604 310.994 41.1052 309.547 38.6325C308.16 36.0995 306.29 34.1997 303.938 32.9332C301.646 31.6064 299.174 30.9429 296.52 30.9429C293.927 30.9429 291.454 31.6064 289.102 32.9332C286.81 34.26 284.94 36.1899 283.493 38.723C282.106 41.256 281.412 44.2414 281.412 47.679C281.412 51.1167 282.106 54.1322 283.493 56.7256C284.94 59.2586 286.81 61.1885 289.102 62.5154C291.454 63.8422 293.927 64.5056 296.52 64.5056C299.174 64.5056 301.646 63.8422 303.938 62.5154C306.29 61.1282 308.16 59.138 309.547 56.5446C310.994 53.9513 311.718 50.9358 311.718 47.4981Z" fill="#002603"/>
<path d="M326.259 47.4981C326.259 42.4924 327.284 38.0596 329.335 34.1997C331.446 30.3398 334.28 27.3545 337.839 25.2436C341.457 23.0725 345.438 21.9869 349.78 21.9869C353.7 21.9869 357.108 22.7709 360.003 24.339C362.958 25.8467 365.31 27.7465 367.059 30.0383V22.8011H377.462V72.6475H367.059V65.2293C365.31 67.5814 362.928 69.5415 359.912 71.1096C356.897 72.6776 353.459 73.4617 349.599 73.4617C345.317 73.4617 341.397 72.3761 337.839 70.2049C334.28 67.9734 331.446 64.8976 329.335 60.9775C327.284 56.997 326.259 52.5039 326.259 47.4981ZM367.059 47.679C367.059 44.2414 366.335 41.256 364.888 38.723C363.501 36.1899 361.661 34.26 359.369 32.9332C357.078 31.6064 354.605 30.9429 351.951 30.9429C349.298 30.9429 346.825 31.6064 344.533 32.9332C342.241 34.1997 340.372 36.0995 338.924 38.6325C337.537 41.1052 336.844 44.0604 336.844 47.4981C336.844 50.9358 337.537 53.9513 338.924 56.5446C340.372 59.138 342.241 61.1282 344.533 62.5154C346.885 63.8422 349.358 64.5056 351.951 64.5056C354.605 64.5056 357.078 63.8422 359.369 62.5154C361.661 61.1885 363.501 59.2586 364.888 56.7256C366.335 54.1322 367.059 51.1167 367.059 47.679Z" fill="#002603"/>
<path d="M397.431 64.2342H420.048V72.6475H385.49V64.2342L408.197 31.2143H385.49V22.8011H420.048V31.2143L397.431 64.2342Z" fill="#002603"/>
<path d="M424.725 47.4981C424.725 42.4924 425.75 38.0596 427.801 34.1997C429.912 30.3398 432.746 27.3545 436.305 25.2436C439.923 23.0725 443.904 21.9869 448.246 21.9869C452.166 21.9869 455.574 22.7709 458.469 24.339C461.424 25.8467 463.776 27.7465 465.525 30.0383V22.8011H475.928V72.6475H465.525V65.2293C463.776 67.5814 461.394 69.5415 458.378 71.1096C455.363 72.6776 451.925 73.4617 448.065 73.4617C443.783 73.4617 439.863 72.3761 436.305 70.2049C432.746 67.9734 429.912 64.8976 427.801 60.9775C425.75 56.997 424.725 52.5039 424.725 47.4981ZM465.525 47.679C465.525 44.2414 464.801 41.256 463.354 38.723C461.967 36.1899 460.127 34.26 457.835 32.9332C455.543 31.6064 453.071 30.9429 450.417 30.9429C447.763 30.9429 445.291 31.6064 442.999 32.9332C440.707 34.1997 438.838 36.0995 437.39 38.6325C436.003 41.1052 435.309 44.0604 435.309 47.4981C435.309 50.9358 436.003 53.9513 437.39 56.5446C438.838 59.138 440.707 61.1282 442.999 62.5154C445.351 63.8422 447.824 64.5056 450.417 64.5056C453.071 64.5056 455.543 63.8422 457.835 62.5154C460.127 61.1885 461.967 59.2586 463.354 56.7256C464.801 54.1322 465.525 51.1167 465.525 47.679Z" fill="#002603"/>
<path d="M497.073 30.0383C498.581 27.5053 500.571 25.5452 503.044 24.158C505.577 22.7106 508.562 21.9869 512 21.9869V32.6618H509.376C505.336 32.6618 502.26 33.6871 500.149 35.7376C498.098 37.7882 497.073 41.3465 497.073 46.4125V72.6475H486.76V22.8011H497.073V30.0383Z" fill="#002603"/>
</svg>
